<svg width="39" height="36" viewBox="0 0 39 36" fill="none" xmlns="http://www.w3.org/2000/svg">
  <path fill-rule="evenodd" clip-rule="evenodd" d="M6.45973 0.0178184C5.72736 0.114125 5.15261 0.2465 4.61173 0.443543C4.41761 0.514286 4.22136 0.582752 4.17573 0.59566C2.96236 0.938619 1.47398 2.45536 0.823982 4.0112C0.724732 4.249 0.708483 4.2943 0.643732 4.51577C0.606483 4.64296 0.561357 4.78482 0.543357 4.83114C0.345482 5.33988 0.191857 6.75817 0.229107 7.73212C0.273607 8.89274 0.269107 11.5655 0.218482 14.1019C0.193357 15.3621 0.153982 17.746 0.131107 19.3994C0.108232 21.0528 0.0697326 23.011 0.0454826 23.7511C-0.0233924 25.8573 -0.0121425 28.8879 0.0663575 29.3927C0.259108 30.6329 0.712732 31.6747 1.47273 32.6223C1.66036 32.8563 2.17748 33.3866 2.31323 33.4843C2.36148 33.519 2.58536 33.6817 2.81073 33.846C3.03611 34.0104 3.32336 34.1996 3.44898 34.2665C3.57461 34.3335 3.68361 34.4024 3.69123 34.4198C3.69886 34.4371 3.72086 34.4513 3.74011 34.4513C3.75936 34.4513 3.91198 34.5153 4.07923 34.5935C4.54473 34.8112 4.69798 34.8717 4.78298 34.8717C4.82586 34.8717 4.86098 34.8907 4.86098 34.9138C4.86098 34.9369 4.89723 34.9558 4.94161 34.9558C4.98586 34.9558 5.03373 34.9747 5.04786 34.9979C5.06198 35.021 5.10761 35.0399 5.14936 35.0399C5.22498 35.0399 5.59611 35.1442 5.75386 35.2097C5.79948 35.2287 6.01436 35.2758 6.23136 35.3144C6.44836 35.353 6.69136 35.4011 6.77123 35.4213C6.85123 35.4414 7.33711 35.4666 7.85098 35.4772C8.36486 35.4878 9.13111 35.5057 9.55361 35.5172C9.97623 35.5286 11.0134 35.5493 11.8585 35.5631C12.7036 35.5767 14.0024 35.6073 14.7447 35.6309C15.487 35.6546 16.627 35.681 17.2779 35.6899C19.8439 35.7245 23.9176 35.7946 25.809 35.8367C30.1424 35.9328 32.6216 35.8923 33.3079 35.7142C34.7535 35.3388 35.5905 34.8845 36.4432 34.0119C37.1312 33.3078 37.5952 32.5559 37.9947 31.4977C38.0329 31.3967 38.1547 30.9874 38.2139 30.7619C38.2335 30.6867 38.2672 30.5638 38.2887 30.4887C38.334 30.3307 38.4085 29.8358 38.4644 29.3218C38.4857 29.1253 38.5112 28.4915 38.5211 27.9134C38.5309 27.3353 38.5592 25.9068 38.5841 24.7391C38.871 11.2673 38.9082 7.23831 38.7551 6.23955C38.7109 5.95126 38.5474 5.23814 38.4996 5.12538C38.48 5.07919 38.4141 4.89948 38.3532 4.72598C38.2335 4.38504 37.904 3.69507 37.8096 3.5875C37.7775 3.55106 37.7514 3.50765 37.7514 3.4912C37.7514 3.47462 37.7327 3.4383 37.71 3.41033C37.6871 3.38249 37.5799 3.23746 37.4716 3.08812C37.2095 2.72707 36.6181 2.13556 36.2685 1.88511C36.1134 1.77387 35.977 1.67086 35.9656 1.6563C35.9542 1.64162 35.9169 1.61669 35.8826 1.60075C35.8482 1.58493 35.7549 1.53177 35.6749 1.48254C35.4552 1.34739 34.7297 0.984051 34.6796 0.984051C34.6554 0.984051 34.6031 0.965702 34.5635 0.943175C34.4299 0.867243 33.725 0.650964 33.3236 0.56263C32.6097 0.405577 31.9919 0.377989 27.8469 0.317623C26.3165 0.295349 24.644 0.264344 24.1301 0.248778C23.1669 0.219544 20.3754 0.164367 16.7796 0.103495C15.649 0.0843853 14.3969 0.0598341 13.9971 0.048824C12.3895 0.00491004 6.73523 -0.0183758 6.45973 0.0178184ZM11.2564 3.47196C12.3869 3.496 13.9191 3.5279 14.6611 3.5427C16.2849 3.57535 16.2617 3.56384 15.5686 3.99437C15.3117 4.15395 15.082 4.29202 15.0581 4.30101C15.0341 4.31012 14.9589 4.35745 14.8906 4.40618C14.8224 4.4549 14.729 4.51526 14.683 4.54045C14.5621 4.60638 13.9717 4.96832 13.7169 5.13284C13.4384 5.31242 13.4405 5.32065 13.7999 5.46087C13.9655 5.52554 14.1187 5.59476 14.1405 5.61463C14.1621 5.63463 14.2029 5.65095 14.2309 5.65095C14.2589 5.65095 14.4234 5.71727 14.5965 5.79813C14.7695 5.87913 14.9222 5.94531 14.9359 5.94531C14.9602 5.94531 15.0372 5.97797 15.4191 6.15058C15.5274 6.19956 15.6272 6.23955 15.6412 6.23955C15.6551 6.23955 15.7254 6.26549 15.7974 6.29701C15.8694 6.32864 16.059 6.41204 16.219 6.48253C16.3789 6.5529 16.7712 6.71817 17.091 6.84979C17.4107 6.98141 17.7285 7.11391 17.797 7.14415C17.8655 7.17452 18.0897 7.26957 18.2954 7.35524C18.5009 7.44092 18.7439 7.54444 18.8352 7.58544C18.9266 7.62632 19.08 7.68985 19.1761 7.72642C19.2721 7.76312 19.431 7.82931 19.529 7.87348C19.6271 7.91764 19.8381 8.00661 19.998 8.07128C20.1579 8.13582 20.3065 8.20429 20.3281 8.22327C20.3499 8.24225 20.3914 8.25769 20.4205 8.25769C20.4495 8.25769 20.572 8.30275 20.6925 8.35792C20.813 8.41298 21.0144 8.5003 21.14 8.5518C21.2656 8.60344 21.4469 8.68127 21.5426 8.72493C21.6385 8.76859 21.7275 8.80428 21.7404 8.80428C21.7532 8.80428 21.8524 8.84439 21.9606 8.89324C22.1967 9.00006 22.3571 9.06725 22.552 9.14104C22.632 9.17141 22.7151 9.21203 22.7367 9.23152C22.7585 9.25088 22.8 9.26683 22.8291 9.26683C22.8581 9.26683 22.9899 9.31631 23.1219 9.37693C23.504 9.55246 23.6219 9.60321 23.6474 9.60321C23.6605 9.60321 23.7936 9.6599 23.9432 9.72925C24.0927 9.7986 24.2259 9.85543 24.239 9.85543C24.2622 9.85543 24.4725 9.94515 24.6595 10.035C24.8075 10.106 24.7696 10.2042 24.5551 10.3062C24.447 10.3576 24.1245 10.511 23.8386 10.6471C23.5526 10.7833 23.276 10.9083 23.2237 10.9252C23.0751 10.973 23.1319 11.0293 23.4667 11.1665C23.6374 11.2365 23.836 11.3202 23.908 11.3524C23.9799 11.3847 24.0502 11.411 24.0641 11.411C24.078 11.411 24.178 11.4511 24.2862 11.5C24.5869 11.6359 24.7025 11.6837 25.0852 11.8302C25.2794 11.9044 25.4942 11.9897 25.5627 12.0196C25.6314 12.0495 25.7527 12.0978 25.8327 12.1272C26.0155 12.1941 26.1739 12.2601 26.424 12.3732C26.5322 12.4221 26.6322 12.4622 26.6461 12.4622C26.6601 12.4622 26.7397 12.4928 26.8231 12.5303C27.1729 12.6872 27.2377 12.7144 27.2617 12.7144C27.2757 12.7144 27.3664 12.7501 27.4631 12.7937C27.56 12.8373 27.77 12.9246 27.9299 12.9877C28.0897 13.0509 28.258 13.1177 28.3036 13.1362C29.2124 13.5031 29.4957 13.6192 29.6425 13.6858C29.7394 13.7296 29.8299 13.7655 29.8439 13.7655C29.8577 13.7655 29.9281 13.7922 30 13.8249C30.072 13.8575 30.2604 13.9351 30.4186 13.9974C30.577 14.0597 30.7357 14.1258 30.7716 14.1446C30.8075 14.1632 30.9304 14.2114 31.0445 14.2515C31.1587 14.2916 31.3269 14.3569 31.4182 14.3965C31.5096 14.4363 31.6685 14.5023 31.7712 14.5433C31.874 14.5843 32.0374 14.6532 32.1342 14.6962C32.231 14.7394 32.3245 14.7752 32.3419 14.7761C32.3592 14.7768 32.4481 14.814 32.5395 14.8587C32.6309 14.9034 32.7189 14.9406 32.7349 14.9413C32.8686 14.9478 34.4181 15.7472 34.9274 16.0725C36.922 17.3462 37.2652 18.7158 35.8811 19.8776C35.5055 20.1928 34.3385 20.871 34.1716 20.871C34.1396 20.871 34.0957 20.8876 34.074 20.9078C34.0522 20.9281 33.9246 20.9855 33.7901 21.0355C33.528 21.133 33.352 21.2107 32.8302 21.4596C32.6475 21.5468 32.4046 21.6603 32.2904 21.7118C31.8789 21.8977 31.5407 22.0565 31.4326 22.1149C31.372 22.1477 31.2926 22.1744 31.2561 22.1744C31.2197 22.1744 31.1899 22.1933 31.1899 22.2164C31.1899 22.2395 31.1717 22.2585 31.1495 22.2585C31.1082 22.2585 30.7135 22.4314 30.5251 22.5319C30.468 22.5625 30.253 22.6625 30.0476 22.7541C29.7005 22.909 29.3997 23.0475 28.885 23.2893C28.6014 23.4226 28.0611 23.6745 27.7845 23.8025C27.6589 23.8607 27.3811 23.9912 27.1672 24.0924C26.9534 24.1936 26.7729 24.2765 26.766 24.2765C26.7592 24.2765 26.5167 24.3901 26.2272 24.5289C25.9377 24.6676 25.692 24.7811 25.6811 24.7811C25.6702 24.7811 25.4657 24.8758 25.2265 24.9913C24.9874 25.107 24.7826 25.2015 24.7715 25.2015C24.7604 25.2015 24.5975 25.2749 24.4095 25.3645C24.2216 25.4541 23.9744 25.57 23.8601 25.6219C23.6384 25.7228 23.1619 25.9449 22.8219 26.1059C22.7077 26.1599 22.4929 26.2604 22.3444 26.329C21.4642 26.736 21.3201 26.8038 21.2547 26.8416C21.2151 26.8645 21.1544 26.8833 21.1199 26.8833C21.0852 26.8833 21.057 26.9023 21.057 26.9254C21.057 26.9485 21.0354 26.9674 21.0091 26.9674C20.9827 26.9674 20.8472 27.0219 20.708 27.0884C20.5687 27.155 20.3614 27.2526 20.2471 27.3052C20.133 27.3579 19.8994 27.4663 19.7281 27.5462C19.5567 27.6261 19.3419 27.7256 19.2505 27.7673C18.6265 28.0516 18.2322 28.2349 17.6724 28.5009C17.5125 28.5768 17.2882 28.6813 17.1741 28.7332C16.9134 28.8518 16.3959 29.0925 16.1774 29.1969C15.4906 29.5252 15.1019 29.7004 15.0597 29.7004C15.0326 29.7004 14.9927 29.7176 14.971 29.7388C14.9377 29.7712 14.5467 29.958 13.6442 30.3726C13.5529 30.4146 13.277 30.5453 13.0314 30.6632C12.7856 30.7811 12.5765 30.8776 12.5666 30.8776C12.5567 30.8776 12.384 30.9553 12.1827 31.0503C11.9816 31.1452 11.7141 31.2708 11.5885 31.3291C11.4629 31.3873 11.2232 31.4988 11.056 31.5768C10.8887 31.6547 10.7437 31.7184 10.7337 31.7184C10.718 31.7184 10.5181 31.8051 10.2389 31.933C10.0621 32.014 9.23998 32.2679 9.01848 32.3097C7.86573 32.5282 7.45436 32.5278 6.55786 32.3075C5.72586 32.1031 4.78148 31.1395 4.36948 30.0747C4.33911 29.996 4.29886 29.8937 4.28023 29.8474C4.20986 29.6726 4.15736 29.5024 4.09236 29.2378C4.05536 29.0875 4.00798 28.8983 3.98711 28.8174C3.75848 27.9301 3.67561 25.8791 3.81148 24.4702C3.85498 24.0187 3.87698 24.0098 4.36511 24.2441C5.12348 24.6081 5.83123 24.8922 6.33523 25.035C6.40373 25.0543 6.63736 25.1206 6.85436 25.1824C7.07123 25.2442 7.32361 25.3092 7.41498 25.3271C8.87298 25.6112 9.13936 25.6432 10.405 25.6865C11.1331 25.7114 12.2895 25.6437 12.8759 25.5419C13.0015 25.52 13.2445 25.4818 13.4157 25.4569C14.2482 25.3358 15.5001 25.0114 16.0112 24.7846C16.057 24.7643 16.1971 24.7059 16.3227 24.6548C16.8247 24.4503 17.2566 24.2141 17.6101 23.9508C17.7129 23.8742 17.8531 23.7708 17.9216 23.7211C18.6 23.2278 19.361 22.1011 19.5202 21.3546C19.54 21.262 19.5855 21.0539 19.6214 20.892C19.7091 20.4958 19.709 19.3367 19.621 18.8739C19.5857 18.689 19.5409 18.4524 19.5211 18.3484C19.443 17.9364 19.1735 17.0614 19.0194 16.7195C18.9752 16.6216 18.939 16.5269 18.939 16.5092C18.939 16.3601 17.8955 14.4382 17.8146 14.4382C17.7947 14.4382 17.6799 14.4834 17.5594 14.5385C17.2892 14.6622 16.9657 14.8071 16.8004 14.8787C16.7319 14.9084 16.5636 14.9844 16.4266 15.0477C16.2895 15.1109 15.9625 15.2576 15.6999 15.3737C15.4371 15.4896 15.1115 15.6388 14.9761 15.7051C14.8407 15.7714 14.7149 15.8257 14.6964 15.8257C14.678 15.8257 14.4642 15.9202 14.2215 16.0359C13.9787 16.1516 13.7634 16.2461 13.7427 16.2461C13.7222 16.2461 13.6729 16.265 13.6332 16.2879C13.5225 16.3519 12.8329 16.6665 12.8032 16.6665C12.7889 16.6665 12.6639 16.7219 12.5254 16.7897C12.387 16.8574 12.0962 16.9919 11.8792 17.0886C10.8527 17.5463 10.9172 17.4665 11.2745 17.8387C12.1829 18.785 12.9481 20.1191 13.1946 21.1864C13.2812 21.5613 13.3162 22.6348 13.2495 22.868C13.018 23.6772 12.9317 23.8713 12.6576 24.2005C12.2179 24.7285 11.4101 24.8313 10.9281 24.4208C10.6896 24.2176 10.6891 24.2038 10.9036 23.7089C10.9601 23.5788 11.0406 23.318 11.1372 22.9522C11.2122 22.6682 11.2119 21.7079 11.1367 21.4596C11.008 21.0346 10.9484 20.8785 10.8077 20.5985C10.7267 20.4372 10.645 20.2858 10.6264 20.2621C10.6076 20.2386 10.4754 20.0689 10.3325 19.8849C9.77686 19.1697 8.71836 18.4088 7.58111 17.9071C7.48973 17.8669 7.35498 17.8071 7.28173 17.7746C7.10873 17.6978 7.07286 17.6339 7.16998 17.5756C7.32548 17.4819 8.01223 17.113 8.75661 16.7232C9.17486 16.5043 9.60461 16.2739 9.71173 16.2114C9.81898 16.1488 10.0561 16.0222 10.2389 15.9301C10.4216 15.838 10.5805 15.7532 10.5919 15.7417C10.6032 15.73 10.7435 15.653 10.9034 15.5703C11.0632 15.4878 11.4136 15.3033 11.682 15.1604C11.9504 15.0177 12.3895 14.7849 12.6579 14.6433C12.9262 14.5017 13.2674 14.3196 13.4157 14.2386C13.5642 14.1577 13.8912 13.9826 14.1425 13.8496C14.3937 13.7166 14.7209 13.5418 14.8692 13.4612C15.0177 13.3804 15.4195 13.1674 15.7621 12.9876C16.1047 12.8079 16.4037 12.6472 16.4266 12.6305C16.6987 12.4318 17.9547 11.8352 18.0231 11.8723C18.0885 11.9077 18.5652 12.5571 18.5652 12.6106C18.5652 12.6192 18.6469 12.7454 18.7465 12.8911C19.1992 13.5527 20.1582 15.3167 20.3875 15.9097C20.4187 15.9907 20.4701 16.1118 20.5015 16.179C20.533 16.2461 20.5586 16.3174 20.5586 16.3371C20.5586 16.357 20.5942 16.4534 20.6377 16.5514C20.8267 16.9775 20.9979 17.5796 21.1782 18.4534C21.496 19.9936 21.2594 21.7541 20.5677 22.9942C20.1201 23.7969 18.633 25.3697 18.3217 25.3697C18.2996 25.3697 18.2752 25.3843 18.2676 25.402C18.2317 25.4858 17.1246 26.1102 16.7905 26.2352C16.6816 26.2759 16.574 26.3221 16.5511 26.338C16.5284 26.3538 16.3695 26.4183 16.1981 26.4812C16.0269 26.5442 15.8494 26.6125 15.8036 26.6328C15.758 26.6532 15.6179 26.7 15.4922 26.7369C15.3666 26.7738 15.1424 26.8406 14.9939 26.8854C14.6574 26.9871 14.1255 27.0935 13.955 27.0935C13.8842 27.0935 13.748 27.1111 13.6522 27.1326C12.7245 27.3405 9.79723 27.3776 8.65461 27.1959C8.42961 27.1601 8.12398 27.1135 7.97561 27.0925C7.70136 27.0534 7.30048 26.9672 6.99961 26.8825C6.90836 26.8567 6.76811 26.8209 6.68823 26.8027C6.42198 26.7422 6.16998 26.6581 6.08723 26.6023C5.86173 26.4501 5.85761 26.4659 5.85761 27.4897C5.85761 28.0083 5.87773 28.5333 5.90236 28.6565C6.28373 30.5681 7.05536 31.0735 8.80611 30.5581C8.86323 30.5413 9.19023 30.3834 9.53286 30.2071C10.1 29.9154 10.491 29.726 11.2564 29.3723C11.5215 29.2498 11.8851 29.079 12.5021 28.7871C12.6735 28.7062 12.8884 28.6055 12.9797 28.5637C13.1471 28.4868 13.9526 28.1076 14.184 27.9966C14.6031 27.7956 15.2942 27.4687 15.4714 27.3877C15.6961 27.2848 15.9996 27.1436 16.4889 26.9142C16.6601 26.8339 16.9031 26.7208 17.0287 26.6628C17.1544 26.6049 17.444 26.4681 17.6724 26.3588C18.0935 26.1576 18.2871 26.0663 18.7729 25.8401C19.0385 25.7163 19.5902 25.4569 19.998 25.264C20.1122 25.21 20.3085 25.1191 20.434 25.0621C20.5596 25.0051 20.8306 24.8787 21.0362 24.7811C21.2417 24.6837 21.5127 24.5562 21.6384 24.498C21.764 24.4398 22.0444 24.3079 22.2612 24.205C22.4782 24.102 22.7586 23.9696 22.8842 23.9108C23.0099 23.8518 23.2247 23.7507 23.3617 23.6859C23.4989 23.6212 23.7231 23.5179 23.8601 23.4562C23.9971 23.3946 24.2587 23.2718 24.4415 23.1834C24.6242 23.0949 25.026 22.9051 25.3344 22.7613C25.6427 22.6177 26.126 22.389 26.4084 22.2532C26.6907 22.1173 26.93 22.0062 26.94 22.0062C26.9501 22.0062 27.1721 21.9021 27.4334 21.775C27.6947 21.6478 27.9157 21.5437 27.9246 21.5437C27.939 21.5437 28.2916 21.3782 29.1342 20.9759C29.9041 20.6083 30.3281 20.4086 30.3385 20.4086C30.3449 20.4086 30.553 20.3118 30.8011 20.1936C31.0491 20.0752 31.3911 19.9134 31.5611 19.8339C32.1117 19.5761 32.8095 18.9589 32.8095 18.7296C32.8095 18.7049 32.8236 18.6847 32.8409 18.6847C32.9491 18.6847 33.0054 18.1652 32.923 17.926C32.7946 17.5529 32.2971 17.0946 31.8026 16.8938C31.6941 16.8498 31.6054 16.7995 31.6054 16.7822C31.6052 16.7648 31.5716 16.7507 31.5306 16.7507C31.4709 16.7507 30.9301 16.5417 30.3385 16.2901C30.2929 16.2707 30.1527 16.2131 30.0271 16.1619C29.9015 16.1109 29.7426 16.0451 29.6741 16.0157C29.6056 15.9862 29.4561 15.9286 29.3419 15.8877C29.2276 15.8468 29.0595 15.7801 28.9681 15.7394C28.8767 15.6988 28.6057 15.587 28.366 15.4912C28.1261 15.3953 27.8832 15.2965 27.8261 15.2714C27.7035 15.2176 27.6082 15.1803 27.4107 15.1089C27.3309 15.0799 27.2094 15.033 27.1409 15.0045C27.0724 14.9761 26.9135 14.9107 26.7879 14.8593C26.6622 14.808 26.5034 14.742 26.4349 14.7129C26.3664 14.6837 26.2262 14.6264 26.1234 14.5854C26.0206 14.5445 25.8805 14.487 25.812 14.4578C25.7435 14.4286 25.4819 14.3247 25.2306 14.227C24.9794 14.1294 24.7084 14.0214 24.6284 13.9873C24.5485 13.9531 24.4457 13.9091 24.4 13.8894C24.1044 13.7626 23.4759 13.5133 23.452 13.5133C23.4361 13.5133 23.344 13.478 23.2471 13.435C23.1504 13.3918 22.987 13.3231 22.8842 13.2821C22.7815 13.2411 22.6412 13.1836 22.5727 13.1545C22.5042 13.1254 22.3454 13.0598 22.2197 13.0088C22.0941 12.9578 21.954 12.9 21.9084 12.8807C21.8626 12.8612 21.601 12.7569 21.3269 12.6488C21.0529 12.5408 20.7725 12.4277 20.704 12.3978C20.6355 12.3678 20.3365 12.2461 20.0395 12.1274C19.7426 12.0086 19.4622 11.8953 19.4166 11.8756C19.371 11.8559 19.2275 11.7984 19.0979 11.7479C18.745 11.6105 18.7575 11.5726 19.2419 11.31C19.475 11.1836 19.806 11.0031 19.9772 10.9091C20.1485 10.815 20.3775 10.6956 20.486 10.6437C20.8005 10.4936 20.78 10.4749 19.8942 10.1051C19.7686 10.0527 19.648 9.994 19.6264 9.97464C19.6046 9.95528 19.5625 9.93946 19.5327 9.93946C19.5029 9.93946 19.3816 9.89225 19.2632 9.83442C19.1449 9.77659 19.0326 9.72925 19.0139 9.72925C18.995 9.72925 18.8442 9.66585 18.679 9.58827C18.5136 9.5107 18.2102 9.37516 18.0046 9.28695C17.7991 9.19887 17.5467 9.08991 17.444 9.04486C17.1346 8.90919 16.8882 8.80175 16.8004 8.76429C16.6839 8.71455 16.4594 8.61672 16.2397 8.51991C16.1369 8.47473 15.8846 8.36564 15.6791 8.27782C15.4735 8.18986 15.2066 8.07369 15.0861 8.01965C14.9655 7.96561 14.8585 7.92132 14.8484 7.92132C14.8382 7.92132 14.722 7.87183 14.5901 7.81121C14.4581 7.7506 14.2941 7.67707 14.2256 7.64783C14.1571 7.6186 13.8955 7.50635 13.6442 7.3984C13.393 7.29057 13.15 7.18617 13.1044 7.16668C12.8816 7.07138 12.6739 6.97799 12.5255 6.90674C12.4356 6.86358 12.3481 6.82828 12.3311 6.82828C12.3142 6.82828 12.1766 6.77031 12.0254 6.69944C11.6559 6.52619 11.7026 6.49962 10.7186 7.44143C10.5232 7.62847 10.27 7.86487 10.1559 7.96687C10.0416 8.06888 9.83598 8.26086 9.69898 8.39374C9.30861 8.77188 9.33323 8.78947 8.88923 7.81628C8.79423 7.6081 8.67311 7.34322 8.61998 7.22768C8.18048 6.27056 8.01336 5.90418 7.65136 5.10437C7.58336 4.95415 7.44886 4.6608 7.35261 4.45275C6.89036 3.45361 6.88361 3.43615 6.94986 3.40438C6.97723 3.39122 7.49486 3.39122 8.10011 3.40438C8.70548 3.41742 10.1257 3.44791 11.2564 3.47196ZM15.8827 17.7113C15.981 17.8689 15.9915 17.8738 16.2867 17.9017C16.7396 17.9443 16.7969 17.9967 16.7652 18.3402C16.7326 18.6936 16.6784 18.7549 16.462 18.6826C15.9521 18.512 15.3936 18.7481 15.644 19.0283C15.6981 19.0889 15.7752 19.1053 16.0074 19.1058C16.497 19.1071 16.859 19.2048 17.0225 19.3799C17.4584 19.8467 17.4799 20.3657 17.081 20.7953C16.9969 20.8861 16.9802 20.9374 16.9985 21.0512C17.029 21.2418 17.0052 21.27 16.7252 21.3762C16.451 21.48 16.3935 21.47 16.3156 21.3047C16.2647 21.197 16.2354 21.1843 15.9902 21.1646C15.5585 21.1298 15.4706 21.065 15.4752 20.7857C15.4805 20.4659 15.5485 20.3069 15.6552 20.3648C15.8845 20.4891 16.5862 20.3934 16.6371 20.2309C16.7252 19.9498 16.5442 19.8583 15.9282 19.8725C14.935 19.8953 14.4781 18.9246 15.1476 18.2139C15.2372 18.1187 15.2509 18.073 15.2321 17.9317C15.2062 17.7356 15.2377 17.6982 15.498 17.6154C15.7617 17.5315 15.7722 17.5342 15.8827 17.7113Z" fill="url(#paint0_linear_172_152)"/>
  <defs>
    <linearGradient id="paint0_linear_172_152" x1="37.5" y1="29" x2="-6" y2="29" gradientUnits="userSpaceOnUse">
      <stop offset="0.0989583" stop-color="#956302"/>
      <stop offset="1" stop-color="#E8E8E8" stop-opacity="0"/>
    </linearGradient>
  </defs>
</svg>
