<svg width="69" height="66" viewBox="0 0 69 66" fill="none" xmlns="http://www.w3.org/2000/svg">
  <path fill-rule="evenodd" clip-rule="evenodd" d="M15.8459 6.0503C14.8352 6.19929 14.042 6.40408 13.2956 6.70892C13.0277 6.81836 12.7569 6.92428 12.6939 6.94425C11.0195 7.47482 8.96551 9.82128 8.06851 12.2282C7.93155 12.5961 7.90913 12.6662 7.81977 13.0088C7.76837 13.2056 7.70609 13.4251 7.68125 13.4967C7.40819 14.2838 7.19618 16.4779 7.24759 17.9847C7.309 19.7802 7.30279 23.9151 7.23293 27.839C7.19825 29.7886 7.14391 33.4766 7.11235 36.0345C7.08078 38.5924 7.02765 41.6217 6.99419 42.7667C6.89914 46.0251 6.91466 50.7135 7.02299 51.4945C7.28899 53.4132 7.91499 55.0249 8.96379 56.4909C9.22271 56.8529 9.93635 57.6732 10.1237 57.8244C10.1903 57.878 10.4992 58.1298 10.8102 58.3839C11.1212 58.6382 11.5177 58.9309 11.691 59.0345C11.8644 59.1381 12.0148 59.2448 12.0253 59.2716C12.0358 59.2984 12.0662 59.3203 12.0928 59.3203C12.1193 59.3203 12.33 59.4194 12.5608 59.5404C13.2032 59.8772 13.4146 59.9707 13.5319 59.9707C13.5911 59.9707 13.6396 60.0001 13.6396 60.0359C13.6396 60.0716 13.6896 60.1009 13.7508 60.1009C13.8119 60.1009 13.878 60.1301 13.8975 60.1659C13.917 60.2018 13.9799 60.2309 14.0375 60.2309C14.1419 60.2309 14.654 60.3923 14.8717 60.4937C14.9347 60.523 15.2312 60.5959 15.5307 60.6556C15.8302 60.7153 16.1655 60.7897 16.2757 60.821C16.3861 60.8521 17.0566 60.8911 17.7658 60.9076C18.4749 60.9238 19.5323 60.9516 20.1154 60.9694C20.6986 60.987 22.1299 61.019 23.2961 61.0403C24.4624 61.0614 26.2547 61.1088 27.2792 61.1452C28.3035 61.1819 29.8767 61.2228 30.7749 61.2365C34.3159 61.2901 39.9377 61.3986 42.5478 61.4636C48.5279 61.6124 51.9492 61.5497 52.8963 61.2741C54.8912 60.6934 56.0463 59.9905 57.2231 58.6406C58.1725 57.5512 58.8128 56.3881 59.3642 54.751C59.4168 54.5947 59.585 53.9616 59.6665 53.6127C59.6936 53.4964 59.7402 53.3063 59.7699 53.19C59.8323 52.9456 59.9351 52.1799 60.0122 51.3849C60.0417 51.0808 60.0769 50.1003 60.0906 49.206C60.104 48.3117 60.1432 46.1017 60.1775 44.2952C60.5734 23.4537 60.6248 17.2207 60.4135 15.6756C60.3524 15.2296 60.1268 14.1264 60.0609 13.9519C60.0338 13.8805 59.9429 13.6024 59.8589 13.334C59.6936 12.8066 59.2389 11.7392 59.1087 11.5728C59.0644 11.5164 59.0283 11.4492 59.0283 11.4238C59.0283 11.3981 59.0026 11.3419 58.9712 11.2987C58.9396 11.2556 58.7916 11.0312 58.6422 10.8002C58.2805 10.2416 57.4644 9.32654 56.9819 8.93908C56.7679 8.76699 56.5797 8.60762 56.564 8.58511C56.5483 8.56239 56.4967 8.52383 56.4494 8.49916C56.402 8.47468 56.2731 8.39246 56.1627 8.3163C55.8596 8.1072 54.8585 7.54511 54.7893 7.54511C54.7558 7.54511 54.6837 7.51672 54.629 7.48187C54.4446 7.3644 53.4719 7.0298 52.918 6.89315C51.9329 6.65018 51.0802 6.6075 45.3601 6.51411C43.2482 6.47965 40.9401 6.43169 40.231 6.40761C38.9017 6.36238 35.0494 6.27702 30.0873 6.18285C28.527 6.15328 26.7991 6.1153 26.2474 6.09827C24.0289 6.03033 16.226 5.99431 15.8459 6.0503ZM22.4652 11.394C24.0253 11.4312 26.1398 11.4805 27.1637 11.5034C29.4045 11.554 29.3726 11.5361 28.4161 12.2022C28.0616 12.4491 27.7446 12.6627 27.7116 12.6766C27.6785 12.6907 27.5746 12.7639 27.4805 12.8393C27.3863 12.9147 27.2574 13.008 27.1939 13.047C27.0271 13.149 26.2124 13.7089 25.8607 13.9635C25.4764 14.2413 25.4793 14.254 25.9752 14.4709C26.2038 14.571 26.4153 14.6781 26.4453 14.7088C26.4751 14.7397 26.5314 14.765 26.57 14.765C26.6086 14.765 26.8357 14.8676 27.0746 14.9927C27.3133 15.118 27.5241 15.2204 27.5429 15.2204C27.5765 15.2204 27.6828 15.2709 28.2098 15.538C28.3592 15.6137 28.497 15.6756 28.5163 15.6756C28.5355 15.6756 28.6324 15.7157 28.7318 15.7645C28.8311 15.8134 29.0928 15.9424 29.3136 16.0515C29.5342 16.1603 30.0757 16.416 30.517 16.6197C30.9582 16.8233 31.3967 17.0283 31.4913 17.075C31.5858 17.122 31.8953 17.2691 32.179 17.4016C32.4626 17.5342 32.7979 17.6943 32.924 17.7577C33.0501 17.821 33.2618 17.9193 33.3944 17.9758C33.5269 18.0326 33.7462 18.135 33.8814 18.2033C34.0168 18.2717 34.308 18.4093 34.5286 18.5094C34.7493 18.6092 34.9544 18.7151 34.9842 18.7445C35.0142 18.7739 35.0715 18.7977 35.1117 18.7977C35.1517 18.7977 35.3208 18.8674 35.487 18.9528C35.6533 19.038 35.9312 19.1731 36.1046 19.2527C36.278 19.3326 36.5281 19.453 36.6602 19.5206C36.7925 19.5881 36.9153 19.6433 36.9331 19.6433C36.9509 19.6433 37.0877 19.7054 37.2371 19.781C37.5629 19.9462 37.7842 20.0502 38.0532 20.1643C38.1636 20.2113 38.2783 20.2741 38.3081 20.3043C38.3381 20.3342 38.3954 20.3589 38.4356 20.3589C38.4756 20.3589 38.6574 20.4355 38.8396 20.5292C39.3669 20.8008 39.5296 20.8793 39.5648 20.8793C39.5829 20.8793 39.7666 20.967 39.9731 21.0743C40.1794 21.1816 40.3631 21.2695 40.3812 21.2695C40.4133 21.2695 40.7034 21.4083 40.9615 21.5473C41.1657 21.6572 41.1135 21.8091 40.8175 21.9669C40.6683 22.0464 40.2232 22.2837 39.8287 22.4943C39.434 22.705 39.0523 22.8984 38.9802 22.9245C38.7751 22.9985 38.8534 23.0856 39.3155 23.2978C39.551 23.4061 39.8251 23.5355 39.9244 23.5854C40.0236 23.6353 40.1207 23.6761 40.1399 23.6761C40.159 23.6761 40.297 23.7381 40.4464 23.8137C40.8613 24.024 41.0208 24.098 41.549 24.3245C41.8169 24.4394 42.1135 24.5714 42.208 24.6176C42.3027 24.6638 42.4702 24.7386 42.5806 24.784C42.8328 24.8876 43.0513 24.9896 43.3965 25.1646C43.5459 25.2402 43.6839 25.3022 43.703 25.3022C43.7224 25.3022 43.8323 25.3496 43.9473 25.4076C44.43 25.6503 44.5195 25.6924 44.5526 25.6924C44.5719 25.6924 44.697 25.7477 44.8305 25.8152C44.9642 25.8825 45.254 26.0176 45.4746 26.1153C45.6953 26.213 45.9274 26.3164 45.9904 26.345C47.2445 26.9126 47.6355 27.0923 47.838 27.1953C47.9717 27.263 48.0966 27.3186 48.1159 27.3186C48.1351 27.3186 48.2322 27.3599 48.3314 27.4104C48.4308 27.4609 48.6907 27.581 48.9091 27.6773C49.1277 27.7736 49.3467 27.876 49.3962 27.905C49.4458 27.9338 49.6153 28.0084 49.7728 28.0704C49.9305 28.1325 50.1625 28.2335 50.2886 28.2948C50.4147 28.3563 50.6339 28.4585 50.7757 28.5219C50.9175 28.5853 51.143 28.6918 51.2767 28.7584C51.4102 28.8252 51.5392 28.8806 51.5632 28.8819C51.5872 28.8831 51.7098 28.9407 51.8359 29.0098C51.962 29.0789 52.0835 29.1365 52.1055 29.1376C52.2901 29.1476 54.4284 30.3844 55.1312 30.8875C57.8838 32.8581 58.3574 34.9769 56.4474 36.7742C55.929 37.2618 54.3185 38.3111 54.0882 38.3111C54.0441 38.3111 53.9835 38.3367 53.9535 38.368C53.9235 38.3993 53.7474 38.4882 53.5618 38.5656C53.2 38.7163 52.9572 38.8365 52.2371 39.2216C51.985 39.3565 51.6498 39.5322 51.4921 39.6118C50.9242 39.8994 50.4576 40.1451 50.3084 40.2354C50.2248 40.2861 50.1152 40.3274 50.0648 40.3274C50.0147 40.3274 49.9734 40.3568 49.9734 40.3924C49.9734 40.4282 49.9484 40.4576 49.9177 40.4576C49.8608 40.4576 49.316 40.7251 49.0561 40.8805C48.9772 40.9279 48.6805 41.0826 48.3971 41.2243C47.9181 41.4639 47.5031 41.6781 46.7927 42.0523C46.4013 42.2584 45.6558 42.6482 45.274 42.8462C45.1006 42.9362 44.7174 43.1381 44.4222 43.2947C44.1271 43.4513 43.878 43.5796 43.8685 43.5796C43.8592 43.5796 43.5245 43.7552 43.125 43.97C42.7255 44.1845 42.3864 44.3602 42.3713 44.3602C42.3563 44.3602 42.0741 44.5066 41.744 44.6854C41.414 44.8643 41.1314 45.0106 41.1161 45.0106C41.1007 45.0106 40.8759 45.1241 40.6165 45.2627C40.3572 45.4013 40.016 45.5807 39.8584 45.6609C39.5524 45.817 38.8948 46.1606 38.4256 46.4096C38.2681 46.4932 37.9716 46.6487 37.7666 46.7548C36.5521 47.3844 36.3532 47.4894 36.263 47.5479C36.2083 47.5833 36.1244 47.6123 36.0768 47.6123C36.029 47.6123 35.9901 47.6417 35.9901 47.6775C35.9901 47.7131 35.9602 47.7425 35.924 47.7425C35.8876 47.7425 35.7006 47.8267 35.5084 47.9297C35.3163 48.0327 35.0301 48.1836 34.8724 48.2651C34.7149 48.3465 34.3925 48.5143 34.1562 48.6378C33.9197 48.7616 33.6232 48.9154 33.4971 48.9799C32.636 49.4198 32.0919 49.7033 31.3193 50.1148C31.0986 50.2323 30.7892 50.394 30.6317 50.4743C30.2719 50.6577 29.5577 51.0301 29.2562 51.1916C28.3085 51.6995 27.772 51.9705 27.7139 51.9705C27.6764 51.9705 27.6214 51.9971 27.5914 52.03C27.5455 52.0801 27.0059 52.3691 25.7605 53.0104C25.6344 53.0754 25.2537 53.2777 24.9147 53.46C24.5756 53.6424 24.287 53.7916 24.2733 53.7916C24.2597 53.7916 24.0213 53.9118 23.7436 54.0589C23.466 54.2057 23.0969 54.3999 22.9235 54.4902C22.7502 54.5802 22.4195 54.7527 22.1887 54.8733C21.9579 54.9939 21.7578 55.0924 21.744 55.0924C21.7222 55.0924 21.4464 55.2265 21.061 55.4245C20.8171 55.5498 19.6826 55.9425 19.3769 56.0073C17.7861 56.3452 17.2184 56.3446 15.9813 56.0038C14.8331 55.6876 13.5299 54.1969 12.9613 52.5496C12.9194 52.4278 12.8638 52.2696 12.8381 52.1979C12.741 51.9276 12.6686 51.6642 12.5789 51.2549C12.5278 51.0223 12.4624 50.7296 12.4336 50.6045C12.1181 49.2318 12.0038 46.0588 12.1913 43.8791C12.2513 43.1808 12.2817 43.1669 12.9553 43.5295C14.0018 44.0925 14.9785 44.5321 15.674 44.7529C15.7686 44.7829 16.091 44.8854 16.3904 44.981C16.6897 45.0765 17.038 45.1772 17.1641 45.2048C19.1761 45.6443 19.5437 45.6938 21.2903 45.7608C22.2951 45.7994 23.8909 45.6946 24.7001 45.5372C24.8735 45.5033 25.2088 45.4442 25.4451 45.4056C26.594 45.2183 28.3216 44.7165 29.0269 44.3656C29.0901 44.3341 29.2834 44.2439 29.4568 44.1648C30.1496 43.8484 30.7455 43.4831 31.2334 43.0756C31.3752 42.9572 31.5687 42.7972 31.6632 42.7203C32.5994 41.9571 33.6496 40.2141 33.8693 39.0591C33.8966 38.916 33.9594 38.594 34.0089 38.3436C34.13 37.7306 34.1298 35.9374 34.0084 35.2214C33.9597 34.9354 33.8978 34.5694 33.8705 34.4085C33.7627 33.771 33.3908 32.4174 33.1781 31.8886C33.1172 31.737 33.0672 31.5906 33.0672 31.5632C33.0672 31.3326 31.6272 28.3592 31.5156 28.3592C31.4882 28.3592 31.3296 28.4291 31.1633 28.5145C30.7906 28.7057 30.3441 28.9299 30.1159 29.0407C30.0214 29.0867 29.7892 29.2042 29.6001 29.3021C29.4109 29.4 28.9596 29.6269 28.5972 29.8064C28.2346 29.9858 27.7853 30.2166 27.5984 30.3192C27.4116 30.4218 27.2379 30.5058 27.2124 30.5058C27.187 30.5058 26.8921 30.652 26.5571 30.831C26.2221 31.0099 25.9249 31.1562 25.8964 31.1562C25.8681 31.1562 25.8 31.1853 25.7453 31.2208C25.5924 31.3198 24.6408 31.8065 24.5999 31.8065C24.58 31.8065 24.4075 31.8923 24.2164 31.997C24.0255 32.1018 23.6242 32.3099 23.3248 32.4595C21.9082 33.1676 21.9972 33.0441 22.4902 33.6199C23.7438 35.084 24.7998 37.1479 25.14 38.7989C25.2595 39.3791 25.3078 41.0397 25.2157 41.4005C24.8962 42.6523 24.7772 42.9527 24.3989 43.4619C23.7921 44.2787 22.6774 44.4379 22.0122 43.8028C21.6831 43.4883 21.6824 43.467 21.9784 42.7015C22.0564 42.5002 22.1675 42.0967 22.3008 41.5307C22.4043 41.0914 22.4038 39.6058 22.3001 39.2216C22.1224 38.5642 22.0402 38.3226 21.8461 37.8895C21.7343 37.6399 21.6215 37.4058 21.5958 37.3691C21.5699 37.3327 21.3874 37.0702 21.1902 36.7855C20.4235 35.6791 18.9628 34.5019 17.3933 33.7258C17.2673 33.6636 17.0813 33.5711 16.9802 33.5208C16.7415 33.402 16.692 33.3031 16.826 33.2129C17.0406 33.068 17.9883 32.4973 19.0155 31.8943C19.5927 31.5556 20.1858 31.1992 20.3336 31.1025C20.4816 31.0056 20.8088 30.8098 21.061 30.6673C21.3132 30.5248 21.5325 30.3936 21.5482 30.3758C21.5639 30.3578 21.7574 30.2385 21.9781 30.1107C22.1987 29.983 22.6822 29.6976 23.0526 29.4765C23.4229 29.2557 24.0289 28.8956 24.3993 28.6766C24.7696 28.4575 25.2404 28.1758 25.4451 28.0505C25.6501 27.9253 26.1013 27.6544 26.448 27.4486C26.7948 27.2428 27.2462 26.9725 27.451 26.8478C27.6559 26.7228 28.2103 26.3933 28.6831 26.1151C29.156 25.8371 29.5686 25.5885 29.6001 25.5626C29.9757 25.2553 31.709 24.3323 31.8033 24.3897C31.8935 24.4445 32.5514 25.4491 32.5514 25.5319C32.5514 25.5452 32.6641 25.7404 32.8016 25.9658C33.4264 26.9893 34.7498 29.7183 35.0661 30.6358C35.1093 30.7611 35.1802 30.9484 35.2235 31.0524C35.2669 31.1562 35.3023 31.2664 35.3023 31.2969C35.3023 31.3277 35.3515 31.4769 35.4115 31.6284C35.6723 32.2876 35.9085 33.2191 36.1574 34.571C36.5959 36.9537 36.2693 39.6772 35.3149 41.5957C34.6972 42.8376 32.6449 45.2708 32.2154 45.2708C32.1849 45.2708 32.1512 45.2933 32.1407 45.3207C32.0912 45.4503 30.5634 46.4163 30.1023 46.6097C29.952 46.6728 29.8035 46.7442 29.7719 46.7687C29.7406 46.7932 29.5213 46.893 29.2848 46.9903C29.0485 47.0878 28.8035 47.1933 28.7404 47.2249C28.6774 47.2564 28.4841 47.3288 28.3107 47.3858C28.1373 47.443 27.8279 47.5463 27.6229 47.6156C27.1586 47.7729 26.4246 47.9375 26.1893 47.9375C26.0917 47.9375 25.9036 47.9647 25.7715 47.998C24.4912 48.3197 20.4516 48.377 18.8748 48.0959C18.5643 48.0405 18.1425 47.9684 17.9378 47.9359C17.5593 47.8754 17.0061 47.7421 16.5909 47.6111C16.465 47.5712 16.2714 47.5158 16.1612 47.4876C15.7938 47.394 15.446 47.264 15.3318 47.1777C15.0206 46.9422 15.0149 46.9666 15.0149 48.5505C15.0149 49.3528 15.0427 50.1649 15.0767 50.3556C15.603 53.3129 16.6678 54.0947 19.0838 53.2975C19.1627 53.2714 19.6139 53.0271 20.0868 52.7544C20.8694 52.3031 21.409 52.0102 22.4652 51.463C22.8311 51.2735 23.3329 51.0092 24.1843 50.5577C24.4208 50.4324 24.7174 50.2767 24.8435 50.2119C25.0744 50.0931 26.186 49.5063 26.5053 49.3346C27.0837 49.0237 28.0375 48.518 28.2819 48.3927C28.592 48.2335 29.0109 48.015 29.686 47.6601C29.9224 47.536 30.2577 47.3609 30.4311 47.2713C30.6044 47.1816 31.0041 46.97 31.3193 46.801C31.9004 46.4897 32.1676 46.3483 32.838 45.9985C33.2045 45.807 33.9659 45.4056 34.5286 45.1073C34.6863 45.0237 34.9571 44.8831 35.1303 44.7948C35.3037 44.7067 35.6777 44.5111 35.9614 44.3602C36.245 44.2094 36.619 44.0123 36.7924 43.9222C36.9657 43.8321 37.3526 43.6281 37.6519 43.469C37.9514 43.3096 38.3383 43.1048 38.5117 43.0138C38.685 42.9225 38.9816 42.7661 39.1706 42.6659C39.3598 42.5658 39.6693 42.4059 39.8584 42.3105C40.0474 42.2152 40.4085 42.0253 40.6607 41.8884C40.9129 41.7515 41.4673 41.4579 41.8928 41.2355C42.3184 41.0132 42.9853 40.6595 43.375 40.4494C43.7646 40.2391 44.0948 40.0672 44.1086 40.0672C44.1226 40.0672 44.4289 39.9063 44.7895 39.7095C45.1502 39.5128 45.4551 39.3518 45.4674 39.3518C45.4872 39.3518 45.9738 39.0957 47.1367 38.4734C48.1991 37.9046 48.7842 37.5957 48.7985 37.5957C48.8073 37.5957 49.0945 37.4459 49.437 37.263C49.7792 37.08 50.2511 36.8296 50.4857 36.7066C51.2456 36.3078 52.2085 35.353 52.2085 34.9982C52.2085 34.96 52.228 34.9287 52.2518 34.9287C52.4012 34.9287 52.4788 34.125 52.3651 33.755C52.188 33.1778 51.5014 32.4689 50.819 32.1582C50.6693 32.09 50.5468 32.0123 50.5468 31.9855C50.5466 31.9587 50.5002 31.9367 50.4437 31.9367C50.3612 31.9367 49.615 31.6135 48.7985 31.2243C48.7356 31.1941 48.5422 31.1051 48.3688 31.026C48.1955 30.9471 47.9762 30.8453 47.8817 30.7996C47.7872 30.754 47.5808 30.6649 47.4232 30.6017C47.2655 30.5385 47.0335 30.4353 46.9074 30.3722C46.7813 30.3094 46.4073 30.1365 46.0765 29.9883C45.7454 29.8399 45.4103 29.687 45.3314 29.6482C45.1622 29.565 45.0308 29.5073 44.7582 29.3969C44.648 29.352 44.4803 29.2794 44.3858 29.2353C44.2913 29.1915 44.072 29.0903 43.8987 29.0108C43.7253 28.9313 43.5061 28.8293 43.4115 28.7842C43.317 28.739 43.1236 28.6503 42.9817 28.5869C42.8399 28.5237 42.6465 28.4348 42.552 28.3895C42.4574 28.3443 42.0964 28.1836 41.7497 28.0324C41.4029 27.8815 41.029 27.7145 40.9186 27.6616C40.8083 27.6088 40.6665 27.5406 40.6034 27.5103C40.1954 27.3141 39.3281 26.9284 39.2952 26.9284C39.2733 26.9284 39.1461 26.8738 39.0124 26.8072C38.8789 26.7405 38.6535 26.6342 38.5117 26.5707C38.3699 26.5073 38.1763 26.4184 38.0818 26.3734C37.9873 26.3283 37.768 26.2267 37.5947 26.1478C37.4213 26.0689 37.2279 25.9797 37.165 25.9497C37.1018 25.9195 36.7408 25.7582 36.3625 25.591C35.9844 25.4238 35.5974 25.249 35.5029 25.2026C35.4084 25.1562 34.9958 24.968 34.5859 24.7844C34.1762 24.6006 33.7893 24.4253 33.7263 24.3948C33.6634 24.3642 33.4653 24.2754 33.2865 24.1972C32.7995 23.9846 32.8167 23.9261 33.4852 23.5198C33.8069 23.3242 34.2637 23.0451 34.5 22.8996C34.7363 22.7539 35.0523 22.5693 35.2021 22.489C35.6361 22.2568 35.6078 22.2279 34.3855 21.6558C34.2121 21.5747 34.0456 21.4839 34.0158 21.4539C33.9858 21.424 33.9276 21.3995 33.8866 21.3995C33.8454 21.3995 33.678 21.3265 33.5147 21.237C33.3513 21.1475 33.1964 21.0743 33.1705 21.0743C33.1445 21.0743 32.9365 20.9762 32.7084 20.8562C32.4802 20.7362 32.0615 20.5265 31.7778 20.39C31.4942 20.2538 31.1459 20.0852 31.0041 20.0155C30.5772 19.8056 30.2372 19.6394 30.1159 19.5815C29.9551 19.5045 29.6453 19.3532 29.3423 19.2034C29.2003 19.1335 28.8522 18.9647 28.5686 18.8289C28.2848 18.6928 27.9165 18.5131 27.7502 18.4295C27.5838 18.3459 27.4361 18.2773 27.4222 18.2773C27.4082 18.2773 27.2478 18.2008 27.0658 18.107C26.8836 18.0132 26.6573 17.8995 26.5628 17.8543C26.4682 17.809 26.1072 17.6354 25.7605 17.4684C25.4137 17.3016 25.0784 17.14 25.0154 17.1099C24.708 16.9625 24.4213 16.818 24.2166 16.7078C24.0926 16.641 23.9718 16.5864 23.9483 16.5864C23.9251 16.5864 23.7351 16.4967 23.5264 16.3871C23.0165 16.119 23.081 16.0779 21.7231 17.5349C21.4535 17.8243 21.104 18.19 20.9465 18.3478C20.7888 18.5056 20.5051 18.8026 20.316 19.0082C19.7773 19.5932 19.8113 19.6204 19.1986 18.1148C19.0675 17.7928 18.9003 17.383 18.827 17.2043C18.2205 15.7236 17.9899 15.1568 17.4903 13.9194C17.3965 13.687 17.2108 13.2332 17.078 12.9113C16.4401 11.3656 16.4308 11.3386 16.5222 11.2895C16.56 11.2691 17.2743 11.2691 18.1096 11.2895C18.945 11.3096 20.9049 11.3568 22.4652 11.394ZM28.8496 33.4229C28.9852 33.6667 28.9997 33.6743 29.4071 33.7174C30.0321 33.7834 30.1111 33.8644 30.0674 34.3958C30.0224 34.9426 29.9476 35.0374 29.649 34.9256C28.9453 34.6617 28.1746 35.0268 28.5201 35.4603C28.5948 35.554 28.7012 35.5795 29.0216 35.5803C29.6973 35.5822 30.1968 35.7334 30.4224 36.0043C31.024 36.7264 31.0536 37.5293 30.5032 38.194C30.3871 38.3344 30.3641 38.4138 30.3893 38.5898C30.4314 38.8847 30.3986 38.9284 30.0122 39.0926C29.6338 39.2532 29.5544 39.2377 29.447 38.982C29.3768 38.8154 29.3362 38.7958 28.9979 38.7653C28.4021 38.7114 28.2809 38.6112 28.2872 38.1791C28.2945 37.6844 28.3883 37.4384 28.5356 37.5279C28.852 37.7202 29.8204 37.5722 29.8906 37.3208C30.0122 36.8859 29.7625 36.7444 28.9124 36.7663C27.5417 36.8016 26.9112 35.2999 27.8351 34.2004C27.9588 34.0532 27.9776 33.9825 27.9517 33.7638C27.916 33.4605 27.9595 33.4026 28.3186 33.2745C28.6826 33.1447 28.6971 33.1488 28.8496 33.4229Z" fill="#006AE7"/>
</svg>
